<?xml version="1.0" standalone="no"?>
<!DOCTYPE svg PUBLIC "-//W3C//DTD SVG 20010904//EN"
 "http://www.w3.org/TR/2001/REC-SVG-20010904/DTD/svg10.dtd">
<svg version="1.0" xmlns="http://www.w3.org/2000/svg"
 width="512.000000pt" height="512.000000pt" viewBox="0 0 512.000000 512.000000"
 preserveAspectRatio="xMidYMid meet">
<metadata>
Created by potrace 1.16, written by Peter Selinger 2001-2019
</metadata>
<g transform="translate(0.000000,512.000000) scale(0.100000,-0.100000)"
fill="#000000" stroke="none">
<path d="M1581 4611 c-48 -48 -85 -183 -97 -353 -7 -94 -8 -97 -35 -109 -16
-6 -29 -17 -29 -24 0 -8 -6 -16 -12 -18 -10 -4 -10 -6 0 -6 7 -1 12 -15 12
-34 0 -41 25 -128 52 -181 16 -31 17 -40 7 -47 -10 -6 -9 -9 5 -15 15 -6 16
-14 11 -54 l-7 -48 54 -24 c63 -29 118 -81 118 -111 0 -13 -27 -49 -70 -92
-55 -55 -71 -79 -74 -106 -2 -18 -9 -61 -15 -94 -6 -33 -11 -82 -11 -110 1
-43 2 -47 12 -30 10 17 13 12 24 -45 7 -36 22 -88 35 -114 48 -104 170 -191
281 -203 l55 -6 11 -74 c10 -73 10 -75 -23 -146 -18 -40 -41 -101 -51 -137
-21 -81 -23 -246 -2 -311 13 -39 13 -51 1 -90 -8 -24 -17 -98 -20 -164 l-6
-120 -37 -32 c-79 -69 -130 -188 -130 -309 0 -104 51 -247 149 -413 37 -62 40
-87 5 -46 l-25 30 17 -43 c20 -51 12 -62 -44 -62 -74 0 -164 -59 -194 -127
-24 -55 -17 -94 23 -127 43 -36 89 -46 217 -46 l112 0 0 -30 c0 -44 19 -78 59
-103 32 -20 49 -22 156 -22 139 0 186 14 223 69 24 35 27 61 12 100 -8 23 -6
28 18 40 57 29 106 34 259 28 191 -9 205 -16 214 -112 5 -55 11 -68 37 -91 43
-38 100 -52 212 -52 104 0 177 22 202 62 11 17 23 21 72 21 113 0 173 35 185
107 6 35 9 38 48 45 60 10 92 29 149 90 96 102 163 216 217 371 30 88 32 99
31 237 -1 136 -3 152 -37 269 -42 143 -43 150 -20 194 15 30 15 31 -1 18 -14
-12 -19 -11 -36 4 -11 10 -20 28 -21 39 0 12 -3 15 -6 8 -7 -18 23 -188 54
-307 22 -82 27 -123 27 -225 1 -153 -16 -225 -84 -365 -84 -171 -182 -272
-273 -282 l-46 -5 -7 37 c-6 33 -3 40 28 73 60 63 118 143 150 206 17 34 55
88 84 120 93 103 119 226 70 332 -32 68 -49 78 -25 14 10 -28 19 -72 19 -100
0 -60 -32 -149 -63 -179 l-24 -21 15 67 c26 124 1 272 -56 336 -9 11 -40 37
-69 58 -31 23 -76 74 -113 126 -67 96 -228 416 -293 583 -48 125 -69 159 -136
225 -28 27 -51 56 -51 65 0 8 -10 56 -22 107 l-22 92 28 41 c59 89 69 172 40
303 -24 102 -15 210 23 285 25 52 34 60 98 92 70 35 175 108 175 121 0 4 -7 9
-15 11 -11 2 -5 21 25 82 21 43 48 88 60 101 23 24 18 35 -18 35 -15 0 -22 5
-18 13 2 6 17 50 33 97 24 74 28 101 28 210 0 137 -10 183 -52 224 -39 39 -86
48 -166 31 -118 -25 -318 -131 -346 -184 -7 -12 8 -8 57 17 86 42 253 92 308
92 55 0 76 -22 98 -101 42 -148 31 -267 -38 -401 l-44 -86 46 24 c25 13 48 22
50 19 3 -3 -14 -25 -37 -49 -24 -24 -38 -45 -32 -47 18 -6 -22 -71 -56 -89
-30 -16 -34 -40 -7 -40 27 0 5 -18 -40 -33 -43 -15 -44 -15 -55 9 -9 21 -8 24
12 24 12 0 29 5 37 10 12 8 11 10 -7 10 -33 0 -28 12 14 35 38 21 73 68 60 81
-4 4 -15 -2 -23 -15 -49 -69 -164 -110 -164 -58 0 13 12 34 26 48 14 13 31 33
36 44 8 14 2 12 -23 -9 l-34 -29 -11 40 c-7 23 -17 51 -24 63 -10 19 -9 24 9
37 24 16 96 123 93 136 -1 5 2 6 7 2 6 -3 15 5 22 17 11 21 11 22 -5 9 -17
-14 -17 -10 -10 60 10 109 34 159 76 159 36 0 52 -62 52 -202 l1 -127 19 52
c38 105 22 270 -31 329 -56 62 -210 -46 -313 -220 l-43 -73 -22 21 c-20 19
-23 19 -29 5 -12 -32 -5 -48 44 -102 61 -66 84 -110 121 -223 16 -51 40 -100
59 -122 28 -35 29 -38 11 -38 -13 0 -27 -12 -38 -32 l-17 -33 -12 71 c-11 62
-40 142 -48 132 -2 -1 0 -30 4 -63 4 -33 4 -105 -1 -160 -4 -55 -5 -174 -2
-265 5 -140 3 -171 -11 -204 -9 -22 -15 -40 -14 -42 7 -6 39 25 53 52 l15 29
0 -28 c0 -86 -148 -273 -286 -360 -60 -37 -157 -76 -208 -83 -43 -6 -44 -6
-85 46 -43 55 -49 69 -28 74 6 2 29 9 49 15 32 10 41 9 63 -5 54 -35 174 -2
206 58 10 19 9 19 -19 -2 -47 -35 -112 -38 -165 -7 -29 18 -48 23 -58 16 -24
-15 -97 -10 -162 12 -34 12 -78 20 -97 18 -19 -1 -71 -2 -115 -2 -67 0 -88 4
-133 27 -29 15 -55 33 -58 41 -4 10 -12 11 -36 3 -49 -17 -151 -4 -203 26
-110 65 -165 155 -165 272 0 39 7 91 15 114 18 52 18 50 0 50 -8 0 -22 -15
-31 -32 -22 -43 -30 -20 -14 38 13 45 26 56 36 29 4 -9 26 16 65 73 59 87 88
172 89 255 0 63 66 128 162 163 49 18 119 12 156 -12 31 -20 41 -10 16 17 -67
74 -194 60 -299 -32 -44 -39 -46 -22 -4 57 37 71 95 134 168 181 51 34 235
103 273 103 10 0 30 14 45 31 16 18 51 43 78 56 l50 23 -53 -3 c-35 -3 -64
-12 -84 -27 -26 -19 -29 -20 -26 -5 11 61 125 76 223 31 30 -14 55 -27 55 -30
0 -2 -24 -4 -53 -4 -92 1 -177 -39 -177 -84 0 -13 8 -9 34 19 31 35 38 37 102
40 68 3 69 3 44 -14 -72 -51 -118 -130 -126 -214 l-4 -54 15 46 c23 71 74 140
123 166 l44 22 51 -21 c29 -11 107 -40 174 -62 l121 -42 25 31 c14 18 62 58
106 90 45 32 79 60 77 63 -8 7 -182 -88 -205 -112 l-22 -23 -82 25 c-73 23
-89 33 -144 88 -100 100 -233 151 -327 124 -53 -14 -80 -41 -98 -94 -10 -32
-20 -42 -50 -52 l-38 -13 -37 72 c-29 56 -67 102 -173 208 -169 171 -239 210
-289 160z m129 -92 c64 -39 243 -229 279 -297 18 -35 31 -65 29 -66 -1 -1 -19
-12 -39 -23 l-36 -20 -16 54 c-37 120 -192 303 -257 303 -14 0 -27 -36 -55
-150 -20 -80 -45 -261 -29 -207 8 24 24 21 25 -5 1 -31 27 -99 28 -73 0 11 -4
39 -9 63 -12 49 9 168 42 242 l20 45 19 -37 c10 -20 26 -80 34 -134 15 -89 42
-165 64 -178 5 -3 -10 -35 -34 -70 -53 -80 -85 -163 -85 -222 0 -40 -2 -45
-17 -39 -10 4 -46 14 -81 22 l-63 15 26 33 c24 33 25 34 5 40 -15 5 -19 12
-15 26 5 13 -3 30 -24 54 -30 35 -44 73 -57 155 -7 41 -6 44 9 31 15 -12 17
-10 18 20 l1 34 13 -30 c8 -16 14 -48 15 -71 0 -27 10 -55 29 -86 18 -28 27
-54 24 -66 -3 -11 0 -29 7 -39 9 -15 11 -14 7 13 -3 31 -3 32 20 17 29 -19 29
-14 -4 50 -75 148 -80 357 -12 530 36 91 58 103 119 66z m149 -308 c49 -76 52
-111 14 -141 l-27 -21 -23 38 c-23 38 -36 90 -49 193 l-6 55 24 -30 c14 -17
44 -59 67 -94z m1299 -83 c-12 -111 -31 -176 -66 -218 l-29 -34 -26 29 c-15
17 -27 36 -27 43 0 7 -5 21 -11 31 -17 26 30 107 102 176 32 30 59 55 61 55 2
0 0 -37 -4 -82z m-1487 -466 c11 -29 5 -28 -16 4 -11 17 -12 25 -4 22 6 -2 16
-14 20 -26z m-27 -184 c-15 -28 -38 -48 -52 -48 -11 0 -7 9 13 30 29 30 52 41
39 18z m358 -723 c44 -25 78 -74 93 -137 9 -37 -6 -36 -72 2 -47 27 -52 33
-62 80 -11 53 -14 80 -7 80 2 0 23 -11 48 -25z m1003 -45 l7 -25 -22 21 c-13
13 -19 27 -15 34 9 14 20 3 30 -30z m-826 -47 c34 -37 61 -71 61 -75 0 -5 -28
-8 -62 -8 l-63 0 -2 53 c-2 28 -5 62 -8 75 -9 37 10 25 74 -45z m183 52 c19
-8 43 -26 52 -40 10 -15 32 -43 51 -63 l33 -37 -116 0 -115 1 -33 71 c-32 71
-32 72 -11 76 48 9 106 6 139 -8z m635 -47 c24 -47 28 -67 31 -170 2 -70 0
-130 -7 -149 -10 -28 -9 -30 6 -18 23 20 53 89 53 126 0 45 14 48 45 12 46
-56 65 -104 64 -166 -1 -83 -17 -116 -19 -38 -2 87 -17 116 -17 34 0 -36 -6
-77 -13 -90 -8 -13 -17 -37 -21 -54 l-7 -30 -1 31 c-1 17 -6 46 -12 63 l-11
32 -22 -53 c-26 -64 -71 -131 -119 -177 l-35 -33 -12 58 c-15 72 -29 102 -30
61 0 -27 -24 -97 -33 -97 -3 0 1 17 9 38 24 67 15 68 -23 3 -31 -52 -56 -77
-131 -133 -51 -38 -111 -87 -133 -109 -43 -43 -44 -42 -53 34 -6 49 -42 144
-51 135 -3 -2 2 -27 10 -54 23 -76 18 -96 -11 -41 -13 26 -26 47 -28 47 -2 0
10 -39 25 -87 33 -101 37 -129 12 -93 -9 14 -36 46 -60 72 -56 61 -101 133
-114 183 -11 39 -12 39 -21 15 -5 -14 -7 -40 -3 -57 3 -18 4 -33 1 -33 -13 0
-79 106 -95 152 l-18 53 -8 -73 -7 -73 -30 40 c-48 66 -70 143 -76 265 -4 94
7 199 24 228 11 17 65 -16 79 -48 18 -44 39 -49 213 -49 l143 0 27 31 c20 24
44 36 97 49 103 27 213 86 286 154 35 33 65 60 66 61 2 0 15 -24 30 -52z
m-990 -138 c-24 -125 -28 -163 -22 -224 15 -155 72 -306 145 -384 45 -48 59
-48 52 -1 -7 44 12 30 44 -33 26 -52 114 -188 121 -188 2 0 0 8 -6 18 -13 25
-52 145 -47 149 13 13 188 -222 221 -299 l14 -33 1 60 c1 77 25 130 91 200 29
30 54 54 56 52 2 -2 -3 -20 -12 -40 -14 -34 -36 -117 -30 -117 1 0 21 31 44
69 22 38 69 97 103 130 l63 61 3 -56 3 -57 71 69 c39 38 68 61 65 52 -21 -60
87 72 112 137 11 29 11 29 7 -10 l-5 -40 29 35 c27 31 59 89 88 160 l10 25 12
-30 c19 -49 33 -143 26 -180 -4 -19 -19 -49 -34 -67 l-27 -32 27 18 c32 21 52
51 62 91 l8 30 13 -25 c8 -14 35 -74 61 -135 87 -205 126 -262 233 -334 68
-47 106 -86 121 -126 69 -177 -23 -464 -200 -629 l-61 -56 21 -39 c42 -83 18
-166 -57 -198 -36 -14 -53 -11 -53 12 0 7 -16 44 -35 81 -19 37 -35 74 -36 83
0 12 -3 10 -11 -6 -8 -17 -5 -33 16 -78 27 -60 32 -85 17 -85 -5 0 -19 30 -32
67 -12 38 -31 81 -42 96 -10 16 -18 29 -16 31 15 13 141 46 173 46 37 0 39 1
24 16 -8 9 -40 19 -69 22 l-54 7 -13 50 c-23 92 10 199 82 261 35 31 37 34 11
21 -101 -51 -153 -177 -121 -297 14 -53 14 -56 -7 -72 -34 -27 -44 -22 -63 34
-14 42 -16 72 -11 157 7 118 79 488 121 619 36 116 32 238 -9 272 -14 11 -14
10 -6 -13 17 -43 25 -147 12 -147 -6 0 -11 15 -12 33 -1 23 -5 15 -15 -32 -8
-35 -25 -99 -39 -142 -43 -137 -115 -571 -115 -698 0 -70 32 -158 80 -221 57
-74 73 -128 50 -171 -17 -30 -30 -22 -30 19 0 42 -29 95 -61 113 -22 11 -22
11 2 -22 30 -42 32 -105 4 -125 -28 -21 -32 -18 -39 32 -6 44 -33 104 -47 104
-4 0 1 -20 9 -44 21 -58 9 -100 -30 -104 -34 -4 -58 29 -59 83 l-1 40 -13 -30
c-8 -16 -14 -43 -15 -59 0 -27 -2 -28 -32 -22 -73 14 -87 80 -38 176 36 71 45
130 61 385 14 246 9 490 -11 528 -14 25 -15 11 -12 -165 l4 -193 -44 -100
c-24 -55 -74 -147 -111 -204 -36 -57 -74 -123 -83 -147 -9 -24 -22 -44 -28
-44 -21 0 -75 64 -111 130 -39 74 -44 69 -15 -15 11 -32 18 -60 16 -62 -2 -3
-17 13 -32 33 l-29 38 -5 -33 c-3 -17 -9 -33 -15 -34 -5 -1 -32 48 -59 108
-26 60 -74 152 -106 205 -101 168 -160 304 -175 403 -7 43 -6 47 14 47 40 0
97 -30 116 -62 44 -75 288 -318 319 -318 2 0 -3 15 -12 33 -9 17 -19 64 -23
102 -5 62 -6 64 -8 21 -1 -57 -9 -54 -32 12 l-17 47 5 -60 6 -60 -33 30 c-18
17 -56 79 -87 143 -30 61 -57 112 -60 112 -3 0 -3 -21 0 -47 l7 -48 -35 60
c-36 63 -51 126 -42 172 5 24 4 22 -10 -7 -10 -24 -14 -51 -10 -87 3 -29 4
-53 1 -53 -2 0 -35 16 -73 35 -70 35 -77 44 -94 120 -3 11 -5 0 -6 -25 l-1
-45 -29 30 c-17 17 -46 57 -67 90 l-36 60 6 -39 c4 -27 2 -36 -5 -29 -14 14
-28 78 -29 128 0 30 -3 36 -10 25 -16 -25 -11 -86 11 -144 14 -39 38 -73 81
-116 34 -33 67 -60 74 -60 7 0 15 -18 19 -42 10 -66 43 -164 79 -237 32 -64
33 -72 50 -295 17 -229 18 -235 72 -376 11 -28 15 -56 10 -73 -7 -31 -55 -60
-94 -55 -22 3 -29 11 -43 58 l-17 55 -1 -53 c-1 -47 -4 -53 -28 -63 -36 -14
-49 -6 -63 35 -9 29 -9 41 3 66 9 16 12 30 7 30 -19 0 -40 -47 -40 -88 0 -43
0 -43 -32 -40 -24 2 -36 10 -46 30 -32 68 54 146 150 135 26 -3 48 -2 48 3 0
14 -70 33 -101 26 -28 -5 -28 -4 -21 27 4 18 7 93 6 167 -1 210 -54 527 -125
755 -46 149 -59 262 -37 334 l14 45 32 -51 c18 -27 42 -59 53 -69 17 -15 14
-4 -15 60 -31 67 -76 195 -76 214 0 3 17 -10 38 -29 62 -58 79 -67 39 -20 -60
72 -87 136 -87 206 0 70 21 157 55 233 l24 53 31 -23 c25 -18 30 -29 27 -48z
m185 -20 c4 -24 1 -30 -11 -28 -21 4 -28 58 -8 58 9 0 17 -13 19 -30z m98 -11
c0 -24 -4 -29 -25 -29 -18 0 -26 7 -31 24 -8 33 1 44 31 38 20 -3 25 -10 25
-33z m162 15 c14 -30 0 -44 -44 -44 -24 0 -28 4 -28 29 0 28 10 36 48 40 7 0
18 -11 24 -25z m-115 -31 c-3 -10 -5 -2 -5 17 0 19 2 27 5 18 2 -10 2 -26 0
-35z m732 -377 c-6 -25 -16 -49 -22 -53 -6 -4 -8 0 -4 9 3 9 11 34 18 57 16
55 23 45 8 -13z m-1205 -508 c34 -110 50 -182 80 -368 38 -242 40 -264 20
-256 -13 5 -15 2 -10 -16 14 -45 18 -98 9 -98 -29 0 -141 160 -199 285 -62
135 -80 276 -49 382 14 47 93 153 115 153 4 0 19 -37 34 -82z m43 -804 c64
-52 54 -101 -28 -125 -48 -15 -67 -3 -50 30 8 14 8 21 1 21 -17 0 -50 -39 -50
-60 0 -27 -16 -25 -36 5 -28 43 -3 98 61 133 18 11 18 11 -8 12 -20 0 -40 -11
-64 -35 -34 -34 -35 -38 -30 -85 l6 -50 -30 0 c-16 0 -45 7 -64 14 -29 13 -35
20 -35 46 0 43 31 83 82 109 36 18 57 21 125 19 74 -3 85 -6 120 -34z"/>
<path d="M1740 4115 c0 -18 -23 -19 -52 -4 -20 11 -21 9 -15 -20 4 -18 16 -51
27 -74 21 -43 21 -43 3 44 -5 26 -3 29 21 29 19 0 26 5 26 20 0 11 -2 20 -5
20 -3 0 -5 -7 -5 -15z"/>
<path d="M1590 3770 c8 -5 20 -10 25 -10 6 0 3 5 -5 10 -8 5 -19 10 -25 10 -5
0 -3 -5 5 -10z"/>
<path d="M2925 2585 c8 -22 21 -71 29 -110 l14 -70 1 49 c1 58 -14 113 -40
147 l-20 24 16 -40z"/>
<path d="M2951 2384 c0 -11 3 -14 6 -6 3 7 2 16 -1 19 -3 4 -6 -2 -5 -13z"/>
<path d="M2505 2157 c-4 -16 -23 -49 -42 -74 -19 -24 -33 -49 -31 -54 6 -19
78 64 84 97 8 43 -1 68 -11 31z"/>
<path d="M2802 2118 c-13 -22 -40 -57 -59 -79 -20 -22 -34 -42 -31 -45 8 -8
75 72 98 117 28 53 21 59 -8 7z"/>
<path d="M2838 1501 c-30 -33 -67 -85 -82 -114 -34 -69 -54 -168 -38 -199 10
-22 11 -22 12 7 1 54 45 159 109 259 34 54 60 101 57 103 -2 2 -28 -23 -58
-56z"/>
<path d="M3515 1537 c-58 -32 -85 -91 -84 -182 l1 -70 10 64 c13 94 55 162
123 199 14 8 15 11 5 12 -8 0 -33 -10 -55 -23z"/>
<path d="M2759 1483 c-55 -49 -80 -103 -85 -177 -3 -59 -3 -60 5 -15 14 75 49
140 98 186 25 24 41 43 34 43 -6 0 -29 -17 -52 -37z"/>
<path d="M3415 758 c17 -15 31 -42 39 -78 10 -40 15 -50 21 -37 19 44 -28 137
-70 137 -12 0 -9 -6 10 -22z"/>
<path d="M3234 3959 c-10 -12 -30 -26 -44 -31 -19 -7 -21 -11 -10 -18 12 -8
12 -14 -3 -44 -22 -47 -8 -46 37 4 37 41 48 63 21 40 -26 -22 -26 -5 0 30 14
19 25 35 25 37 0 7 -8 2 -26 -18z"/>
<path d="M2117 3884 c18 -53 14 -145 -9 -189 l-15 -27 -12 30 c-52 126 -227
119 -293 -12 -32 -63 13 -167 79 -183 l37 -9 -54 -31 c-58 -33 -159 -115 -174
-141 -6 -10 4 -8 30 8 l39 24 -28 -37 c-43 -56 -59 -106 -59 -174 0 -51 6 -76
36 -140 38 -78 61 -113 78 -113 5 0 2 10 -6 22 -9 12 -16 29 -16 37 0 12 3 12
18 -1 9 -9 34 -21 56 -28 49 -16 96 -3 158 44 40 31 51 34 101 33 31 -1 52 -4
46 -8 -6 -3 6 -9 26 -12 27 -4 48 -19 81 -56 64 -72 148 -111 233 -111 79 1
109 15 185 89 37 35 56 61 56 76 0 37 -18 39 -22 3 -3 -31 -5 -33 -41 -33 -25
0 -36 -4 -33 -12 7 -18 -50 -61 -90 -69 -55 -10 -132 3 -178 30 -22 13 -78 63
-123 110 -72 73 -83 90 -83 120 0 50 15 83 42 92 13 3 41 19 64 35 22 15 53
31 68 35 51 12 74 84 41 130 -43 63 -249 94 -312 48 -33 -25 -55 -82 -47 -124
8 -35 68 -108 100 -121 27 -9 30 -33 14 -89 -8 -26 -23 -43 -63 -68 -28 -19
-74 -49 -102 -69 -47 -33 -54 -35 -112 -31 -52 3 -68 9 -93 33 -39 37 -53 84
-48 155 5 67 45 141 120 224 57 64 119 98 227 125 96 24 110 31 58 31 -21 0
-37 2 -37 5 0 3 14 24 30 47 61 83 80 231 40 308 -27 53 -32 50 -13 -6z m-123
-173 c29 -32 -5 -72 -44 -51 -24 13 -33 39 -19 56 16 19 43 17 63 -5z m-142
-68 c-6 -60 -9 -63 -22 -27 -8 20 -8 35 -1 51 17 38 29 26 23 -24z m207 -19
c1 -17 -6 -37 -14 -44 -8 -7 -15 -18 -15 -26 0 -16 -61 -34 -116 -34 -31 0
-48 6 -68 26 -34 34 -34 52 0 25 55 -43 131 -45 175 -5 14 13 19 32 20 73 0
41 3 50 9 36 5 -11 9 -34 9 -51z m172 -203 c24 -12 36 -19 26 -16 -55 15 -154
27 -185 22 -37 -6 -37 -6 -12 9 33 19 114 12 171 -15z m-139 -75 c7 4 8 3 4
-4 -18 -29 -76 3 -76 42 1 19 4 17 31 -12 16 -18 34 -30 41 -26z m218 -2 c0
-8 -4 -12 -10 -9 -5 3 -10 10 -10 16 0 5 5 9 10 9 6 0 10 -7 10 -16z m-70 -51
l25 -13 -27 0 c-31 0 -52 29 -41 57 6 16 8 15 13 -7 3 -14 17 -30 30 -37z"/>
<path d="M2740 3877 c0 -2 23 -19 52 -36 28 -18 47 -26 40 -19 -11 14 -92 62
-92 55z"/>
<path d="M2630 3852 c-29 -13 -70 -44 -70 -53 0 -5 13 -3 30 6 73 38 178 0
260 -93 27 -32 63 -73 80 -92 l30 -35 -32 59 c-39 71 -139 175 -190 199 -37
17 -81 21 -108 9z"/>
<path d="M2592 3743 c-38 -19 -77 -65 -93 -112 -16 -46 -7 -47 24 -4 15 21 27
33 27 27 0 -16 -36 -117 -51 -145 -8 -13 -15 -26 -16 -27 -1 -2 -26 5 -55 16
-30 11 -76 23 -103 27 l-50 7 70 -35 c95 -46 165 -104 218 -179 70 -100 80
-125 87 -218 l5 -85 13 70 c22 122 -18 244 -109 336 -71 70 -50 91 46 44 87
-43 182 -28 243 38 16 17 30 23 45 20 l22 -6 -22 22 c-13 12 -26 34 -29 49
-32 134 -164 209 -272 155z m146 -59 c25 -17 30 -62 7 -70 -8 -4 -26 1 -40 10
-36 24 -33 69 5 75 3 1 16 -6 28 -15z m82 -105 c0 -9 -9 -28 -21 -43 -45 -58
-120 -71 -198 -36 -24 11 -51 20 -60 20 -14 1 -13 3 3 15 16 12 23 11 55 -10
55 -38 113 -35 157 9 25 25 34 43 34 68 1 31 1 32 15 14 8 -11 15 -27 15 -37z"/>
<path d="M1835 3230 c-3 -5 -1 -10 4 -10 6 0 11 5 11 10 0 6 -2 10 -4 10 -3 0
-8 -4 -11 -10z"/>
<path d="M1890 3220 c0 -5 5 -10 10 -10 6 0 10 5 10 10 0 6 -4 10 -10 10 -5 0
-10 -4 -10 -10z"/>
<path d="M1960 3160 c0 -5 5 -10 10 -10 6 0 10 5 10 10 0 6 -4 10 -10 10 -5 0
-10 -4 -10 -10z"/>
<path d="M1815 3140 c4 -6 11 -8 16 -5 14 9 11 15 -7 15 -8 0 -12 -5 -9 -10z"/>
<path d="M1880 3140 c0 -5 5 -10 10 -10 6 0 10 5 10 10 0 6 -4 10 -10 10 -5 0
-10 -4 -10 -10z"/>
<path d="M2460 3140 c0 -5 5 -10 11 -10 5 0 7 5 4 10 -3 6 -8 10 -11 10 -2 0
-4 -4 -4 -10z"/>
<path d="M2395 3130 c3 -5 8 -10 11 -10 2 0 4 5 4 10 0 6 -5 10 -11 10 -5 0
-7 -4 -4 -10z"/>
<path d="M2295 3100 c-3 -5 1 -10 10 -10 9 0 13 5 10 10 -3 6 -8 10 -10 10 -2
0 -7 -4 -10 -10z"/>
<path d="M2340 3060 c0 -5 5 -10 10 -10 6 0 10 5 10 10 0 6 -4 10 -10 10 -5 0
-10 -4 -10 -10z"/>
<path d="M2405 3020 c4 -6 11 -8 16 -5 14 9 11 15 -7 15 -8 0 -12 -5 -9 -10z"/>
<path d="M2476 3021 c-4 -5 -2 -12 3 -15 5 -4 12 -2 15 3 4 5 2 12 -3 15 -5 4
-12 2 -15 -3z"/>
<path d="M2200 2868 c-14 -5 -56 -8 -94 -5 -62 4 -67 3 -45 -9 32 -18 91 -17
134 0 19 8 35 17 35 20 0 7 1 7 -30 -6z"/>
<path d="M3795 2688 c-51 -46 -59 -107 -21 -158 14 -19 33 -45 42 -58 21 -29
11 -53 -55 -131 -60 -70 -95 -130 -115 -201 -19 -65 -22 -200 -6 -262 16 -60
70 -157 140 -248 33 -43 71 -100 85 -126 37 -69 39 -67 13 6 -13 36 -58 115
-100 176 -87 128 -107 179 -115 285 -10 133 30 242 133 360 68 79 72 106 29
193 -14 28 -25 56 -25 64 0 32 33 81 62 93 29 12 32 11 59 -19 54 -61 63 -172
18 -251 -12 -21 -54 -68 -94 -105 -105 -94 -130 -149 -129 -276 1 -52 6 -106
12 -120 10 -23 11 -21 12 20 1 67 27 169 57 220 14 25 67 86 118 135 105 105
135 156 135 236 -1 111 -66 189 -165 197 -49 4 -55 2 -90 -30z m211 -79 c29
-57 7 -188 -37 -214 -6 -4 -3 8 7 26 26 47 25 161 0 209 -17 31 -17 33 -2 21
10 -8 24 -27 32 -42z"/>
</g>
</svg>